<?xml version="1.0" standalone="no"?>
<!DOCTYPE svg PUBLIC "-//W3C//DTD SVG 20010904//EN"
 "http://www.w3.org/TR/2001/REC-SVG-20010904/DTD/svg10.dtd">
<svg version="1.0" xmlns="http://www.w3.org/2000/svg"
 width="700.000000pt" height="700.000000pt" viewBox="0 0 700.000000 700.000000"
 preserveAspectRatio="xMidYMid meet">
<metadata>
Created by potrace 1.14, written by Peter Selinger 2001-2017
</metadata>
<g transform="translate(0.000000,700.000000) scale(0.100000,-0.100000)"
fill="#000000" stroke="none">
<path d="M2457 6344 c-1 -1 -27 -4 -57 -7 -289 -30 -533 -305 -622 -702 -23
-104 -33 -390 -17 -490 13 -80 30 -170 43 -220 87 -337 296 -628 542 -753 138
-70 324 -88 459 -44 184 61 332 197 435 401 27 55 64 154 75 201 2 8 10 44 18
80 46 196 40 414 -18 695 -3 12 -21 68 -41 125 -124 363 -372 629 -644 693
-58 14 -166 27 -173 21z"/>
<path d="M4450 6339 c-517 -56 -906 -781 -794 -1479 8 -48 42 -184 55 -217 6
-16 10 -29 10 -31 -1 -1 15 -35 35 -75 107 -211 243 -340 426 -404 92 -32 259
-37 349 -9 234 71 432 257 564 531 65 136 104 265 141 465 3 19 8 107 10 195
4 185 -15 319 -67 470 -130 378 -407 589 -729 554z"/>
<path d="M868 4925 c-1 -2 -27 -6 -57 -10 -267 -34 -479 -236 -555 -530 -26
-104 -28 -117 -31 -260 -5 -208 18 -346 92 -545 155 -415 465 -734 799 -820
116 -30 206 -32 338 -5 53 11 178 74 230 117 145 119 243 308 273 529 9 69 10
257 1 329 -35 279 -168 586 -345 798 -144 173 -311 294 -484 352 -82 28 -91
30 -169 36 -36 3 -70 7 -77 9 -6 2 -13 2 -15 0z"/>
<path d="M5955 4905 c-438 -96 -823 -585 -910 -1155 -12 -78 -13 -308 -1 -370
44 -242 139 -411 297 -527 104 -77 223 -115 358 -116 93 -1 136 6 226 33 303
94 595 396 746 773 28 68 76 234 84 289 4 24 11 68 15 98 15 96 4 335 -19 425
-93 358 -329 563 -646 563 -49 0 -117 -6 -150 -13z"/>
<path d="M3335 3925 c-163 -25 -253 -61 -385 -154 -65 -46 -183 -159 -230
-220 -14 -18 -34 -45 -46 -59 -50 -64 -161 -232 -259 -393 -59 -96 -125 -198
-148 -227 -86 -113 -224 -221 -467 -368 -137 -82 -289 -180 -300 -193 -3 -3
-21 -18 -40 -32 -56 -42 -158 -149 -196 -206 -56 -85 -114 -212 -130 -288 -2
-11 -9 -45 -15 -75 -16 -79 -17 -212 -2 -307 53 -338 288 -614 606 -712 195
-60 417 -42 762 61 55 16 116 34 135 39 19 6 44 14 55 19 35 16 343 109 443
134 172 43 262 56 392 56 163 0 357 -42 708 -154 341 -109 410 -129 559 -160
127 -27 309 -37 383 -21 14 3 41 8 60 12 46 9 50 10 53 13 1 1 10 3 21 5 39 7
184 84 243 129 86 65 174 164 227 255 64 109 86 171 122 336 6 28 7 253 1 262
-3 5 -8 27 -12 50 -3 23 -15 70 -26 104 -70 212 -161 332 -380 502 -13 10 -94
61 -179 114 -436 269 -516 340 -670 593 -261 430 -388 594 -553 719 -102 77
-237 139 -337 156 -25 4 -54 9 -65 11 -51 11 -258 10 -330 -1z"/>
</g>
</svg>
